<svg xmlns="http://www.w3.org/2000/svg" viewBox="0 0 281.89 81.65"><g id="a"></g><g id="b"><g id="c"><g><g><path d="M53.96,14.17H30.54v50.42h7.18V21.36h16.24c14.64,0,26.56,11.91,26.56,26.56s-11.91,26.56-26.56,26.56H7.18V14.17H0V81.65H53.96c18.6,0,33.74-15.14,33.74-33.74S72.57,14.17,53.96,14.17Z"></path><circle cx="3.59" cy="3.59" r="3.59"></circle></g><g><g><path d="M116,27.18h4.05c.76,0,1.52,.13,2.28,.38,.76,.25,1.45,.63,2.07,1.15,.61,.51,1.11,1.15,1.49,1.91,.38,.76,.57,1.65,.57,2.66s-.19,1.91-.57,2.67c-.38,.76-.88,1.39-1.49,1.9s-1.3,.89-2.07,1.15c-.76,.25-1.53,.38-2.28,.38h-4.05v-12.2Zm1.24,11.06h2.41c.93,0,1.74-.14,2.42-.42,.68-.28,1.25-.66,1.71-1.12,.45-.47,.79-.99,1.01-1.59,.22-.59,.33-1.2,.33-1.83s-.11-1.24-.33-1.84c-.22-.59-.55-1.12-1.01-1.59-.45-.47-1.02-.84-1.71-1.12-.68-.28-1.49-.42-2.42-.42h-2.41v9.93Z"></path><path d="M129.51,33.84c0-.36,0-.72-.03-1.09s-.03-.84-.04-1.43h1.12v1.5h.03c.08-.22,.2-.43,.34-.63,.15-.2,.33-.38,.54-.54,.21-.16,.46-.29,.74-.39,.28-.1,.6-.15,.96-.15,.32,0,.6,.03,.84,.1l-.22,1.12c-.15-.06-.37-.09-.65-.09-.44,0-.81,.08-1.12,.25s-.57,.38-.78,.64c-.21,.26-.36,.54-.46,.84-.1,.3-.15,.59-.15,.86v4.55h-1.14v-5.55Z"></path><path d="M141.14,34.44v-.21c0-1.39-.69-2.09-2.07-2.09-.94,0-1.76,.32-2.46,.95l-.69-.81c.76-.78,1.9-1.17,3.41-1.17,.39,0,.77,.06,1.13,.17,.36,.12,.67,.29,.94,.53,.26,.24,.48,.53,.64,.89,.16,.36,.24,.78,.24,1.28v3.6c0,.31,.01,.63,.04,.97,.03,.34,.06,.62,.09,.84h-1.1c-.03-.2-.06-.41-.08-.64-.02-.23-.03-.45-.03-.67h-.03c-.33,.54-.73,.93-1.18,1.16-.45,.23-1.01,.35-1.66,.35-.36,0-.7-.05-1.03-.15-.33-.1-.63-.25-.89-.45s-.47-.45-.62-.74-.23-.63-.23-1.03c0-.66,.17-1.17,.51-1.54,.34-.37,.76-.65,1.28-.84,.51-.18,1.06-.3,1.64-.34,.58-.05,1.11-.07,1.59-.07h.57Zm-.59,.93c-.29,0-.65,.01-1.08,.04-.43,.03-.84,.1-1.24,.21-.4,.11-.74,.28-1.02,.51-.28,.23-.42,.55-.42,.95,0,.26,.05,.49,.16,.68,.11,.19,.26,.34,.44,.47,.18,.12,.39,.21,.61,.26,.22,.05,.45,.08,.68,.08,.41,0,.77-.07,1.08-.21,.3-.14,.56-.32,.77-.56,.21-.23,.36-.51,.46-.83,.1-.32,.15-.65,.15-1.01v-.59h-.59Z"></path><path d="M147.86,38.56c0,.24-.09,.46-.26,.65-.17,.19-.4,.28-.67,.28s-.5-.09-.67-.28c-.17-.19-.26-.4-.26-.65s.09-.46,.26-.65c.17-.19,.4-.28,.67-.28s.5,.09,.67,.28c.17,.19,.26,.4,.26,.65Z"></path><path d="M161.76,39.39h-1.68V22.88h1.68v16.51Z"></path><path d="M167,31.88c0-.48-.01-.97-.04-1.47s-.04-1.14-.06-1.94h1.52v2.03h.05c.11-.29,.26-.58,.47-.85,.2-.27,.45-.52,.73-.73,.29-.22,.62-.39,1-.52,.38-.13,.81-.2,1.29-.2,.43,0,.82,.05,1.14,.14l-.3,1.52c-.2-.08-.5-.12-.89-.12-.59,0-1.1,.11-1.52,.34-.42,.23-.77,.51-1.05,.86-.28,.35-.49,.73-.62,1.13-.13,.4-.2,.79-.2,1.17v6.16h-1.54v-7.51Z"></path><path d="M182.74,32.69v-.28c0-1.88-.93-2.82-2.8-2.82-1.27,0-2.39,.43-3.33,1.28l-.93-1.1c1.03-1.06,2.56-1.59,4.62-1.59,.53,0,1.04,.08,1.53,.23s.91,.39,1.27,.71c.36,.32,.64,.72,.86,1.2,.22,.48,.33,1.06,.33,1.73v4.87c0,.42,.02,.86,.06,1.32,.04,.46,.08,.84,.13,1.13h-1.49c-.05-.26-.08-.55-.1-.86-.02-.31-.04-.61-.04-.91h-.05c-.45,.73-.98,1.26-1.6,1.57-.61,.32-1.36,.48-2.25,.48-.48,0-.95-.07-1.4-.2-.45-.13-.85-.33-1.2-.61-.35-.27-.63-.61-.84-1-.21-.4-.31-.86-.31-1.39,0-.89,.23-1.58,.69-2.09,.46-.51,1.03-.88,1.73-1.13,.69-.25,1.43-.4,2.22-.47,.78-.06,1.5-.09,2.16-.09h.77Zm-.79,1.26c-.39,0-.87,.02-1.46,.06-.58,.04-1.14,.13-1.68,.28-.54,.15-1,.38-1.38,.69-.38,.31-.57,.74-.57,1.28,0,.36,.07,.66,.22,.92,.15,.26,.35,.47,.59,.63,.25,.16,.52,.28,.83,.35s.61,.1,.92,.1c.56,0,1.05-.09,1.46-.28,.41-.19,.76-.44,1.04-.76s.49-.69,.62-1.12c.13-.43,.2-.88,.2-1.36v-.79h-.79Z"></path><path d="M194.65,29.87h-3.15v6.44c0,.4,.04,.73,.12,.99,.08,.26,.19,.45,.33,.59,.14,.14,.31,.24,.5,.29,.19,.05,.41,.08,.64,.08,.26,0,.54-.04,.82-.12,.28-.08,.54-.18,.77-.3l.07,1.42c-.58,.26-1.27,.4-2.08,.4-.3,0-.6-.04-.92-.12-.32-.08-.61-.23-.87-.44-.26-.22-.48-.51-.65-.89-.17-.37-.26-.86-.26-1.47v-6.88h-2.31v-1.4h2.31v-3.08h1.54v3.08h3.15v1.4Z"></path><path d="M200.74,33.56l-3.96-5.08h2.1l3.03,4.08,2.89-4.08h1.91l-3.8,5.08,4.57,5.83h-2.1l-3.66-4.78-3.52,4.78h-1.96l4.5-5.83Z"></path><path d="M211.4,34.35c.05,.54,.18,1.06,.4,1.54,.22,.48,.5,.9,.86,1.25,.36,.35,.77,.63,1.24,.83s.97,.3,1.52,.3c.82,0,1.53-.19,2.13-.57,.6-.38,1.05-.82,1.36-1.32l1.19,.98c-.65,.82-1.37,1.41-2.16,1.77-.79,.36-1.63,.54-2.53,.54-.81,0-1.56-.14-2.25-.43-.69-.29-1.29-.69-1.78-1.2-.5-.51-.89-1.12-1.18-1.82-.29-.7-.43-1.46-.43-2.28s.14-1.59,.42-2.29c.28-.7,.67-1.31,1.17-1.82,.5-.51,1.08-.91,1.75-1.2,.67-.29,1.39-.43,2.17-.43,.82,0,1.56,.15,2.22,.44,.65,.3,1.2,.69,1.64,1.18,.44,.49,.78,1.06,1.01,1.73s.35,1.36,.35,2.11v.7h-9.09Zm7.41-1.26c0-1.04-.31-1.88-.93-2.53-.62-.64-1.49-.97-2.61-.97-.5,0-.98,.1-1.45,.29-.47,.19-.87,.45-1.22,.78-.35,.33-.63,.7-.84,1.12-.21,.42-.31,.86-.31,1.31h7.37Z"></path><path d="M232.43,22.88h5.48c1.03,0,2.06,.17,3.09,.51,1.03,.34,1.97,.86,2.8,1.55,.83,.69,1.5,1.55,2.02,2.59,.51,1.03,.77,2.23,.77,3.6s-.26,2.59-.77,3.61-1.19,1.88-2.02,2.58c-.83,.69-1.76,1.21-2.8,1.55-1.03,.34-2.06,.51-3.09,.51h-5.48V22.88Zm1.68,14.97h3.26c1.26,0,2.35-.19,3.28-.57,.92-.38,1.69-.89,2.31-1.52,.61-.63,1.07-1.34,1.36-2.14,.3-.8,.44-1.63,.44-2.48s-.15-1.68-.44-2.48c-.3-.8-.75-1.52-1.36-2.15-.61-.63-1.38-1.13-2.31-1.52-.93-.38-2.02-.57-3.28-.57h-3.26v13.43Z"></path><path d="M251.62,26.24h-1.38l2.33-3.36h2.12l-3.08,3.36Zm.82,13.15h-1.54v-10.91h1.54v10.91Z"></path><path d="M264.3,32.69v-.28c0-1.88-.93-2.82-2.8-2.82-1.27,0-2.39,.43-3.33,1.28l-.93-1.1c1.03-1.06,2.56-1.59,4.62-1.59,.53,0,1.04,.08,1.53,.23s.91,.39,1.27,.71c.36,.32,.64,.72,.86,1.2,.22,.48,.33,1.06,.33,1.73v4.87c0,.42,.02,.86,.06,1.32,.04,.46,.08,.84,.13,1.13h-1.49c-.05-.26-.08-.55-.1-.86-.02-.31-.04-.61-.04-.91h-.05c-.45,.73-.98,1.26-1.6,1.57-.61,.32-1.36,.48-2.25,.48-.48,0-.95-.07-1.4-.2-.45-.13-.85-.33-1.2-.61-.35-.27-.63-.61-.84-1-.21-.4-.31-.86-.31-1.39,0-.89,.23-1.58,.69-2.09,.46-.51,1.03-.88,1.73-1.13,.69-.25,1.43-.4,2.22-.47,.78-.06,1.5-.09,2.16-.09h.77Zm-.79,1.26c-.39,0-.87,.02-1.46,.06-.58,.04-1.14,.13-1.68,.28-.54,.15-1,.38-1.38,.69-.38,.31-.57,.74-.57,1.28,0,.36,.07,.66,.22,.92,.15,.26,.35,.47,.59,.63,.25,.16,.52,.28,.83,.35s.61,.1,.92,.1c.56,0,1.05-.09,1.46-.28,.41-.19,.76-.44,1.04-.76s.49-.69,.62-1.12c.13-.43,.2-.88,.2-1.36v-.79h-.79Z"></path><path d="M278.06,29.59l-6.39,8.39h6.62v1.4h-8.86v-1.12l6.39-8.39h-6.06v-1.4h8.3v1.12Z"></path><path d="M133.07,68.06l3.15-7.59h1.45v9.33h-.95v-8.07h-.03l-3.37,8.07h-.5l-3.37-8.07h-.03v8.07h-.95v-9.33h1.45l3.15,7.59Z"></path><path d="M141.81,68.93h4.99v.87h-5.94v-9.33h5.79v.87h-4.84v3.18h4.52v.87h-4.52v3.54Z"></path><path d="M149.2,60.47h3.1c.58,0,1.16,.1,1.75,.29,.58,.19,1.11,.49,1.58,.88,.47,.39,.85,.88,1.14,1.46s.43,1.26,.43,2.04-.15,1.46-.43,2.04-.67,1.07-1.14,1.46c-.47,.39-1,.68-1.58,.88-.58,.19-1.17,.29-1.75,.29h-3.1v-9.33Zm.95,8.46h1.85c.71,0,1.33-.11,1.85-.32,.52-.22,.96-.5,1.3-.86,.35-.36,.6-.76,.77-1.21,.17-.45,.25-.92,.25-1.4s-.08-.95-.25-1.4c-.17-.45-.42-.86-.77-1.21-.35-.36-.78-.64-1.3-.86-.52-.21-1.14-.32-1.85-.32h-1.85v7.59Z"></path><path d="M160.71,69.8h-.95v-9.33h.95v9.33Z"></path><path d="M171.58,68.32c-.16,.24-.35,.46-.59,.67-.23,.21-.5,.39-.8,.55s-.62,.27-.97,.36-.71,.13-1.1,.13c-.69,0-1.34-.12-1.93-.37-.59-.25-1.11-.59-1.54-1.02-.43-.43-.78-.95-1.02-1.55-.25-.6-.37-1.25-.37-1.96s.12-1.37,.37-1.96c.25-.6,.59-1.11,1.02-1.55,.43-.44,.95-.78,1.54-1.02,.59-.25,1.24-.37,1.93-.37,.58,0,1.16,.11,1.74,.34,.58,.23,1.08,.61,1.49,1.13l-.83,.62c-.1-.15-.23-.3-.4-.45-.17-.15-.36-.28-.57-.4s-.45-.21-.69-.28c-.25-.07-.49-.11-.74-.11-.6,0-1.13,.11-1.61,.33-.47,.22-.88,.51-1.21,.88-.33,.37-.58,.8-.76,1.28-.18,.49-.26,1-.26,1.54s.09,1.05,.26,1.54c.18,.49,.43,.92,.76,1.29,.33,.37,.73,.66,1.21,.88,.47,.22,1.01,.33,1.61,.33,.25,0,.49-.02,.73-.07,.24-.04,.48-.12,.71-.22,.23-.11,.45-.25,.66-.43,.21-.18,.4-.41,.57-.68l.78,.55Z"></path><path d="M174.78,69.8h-.95v-9.33h.95v9.33Z"></path><path d="M184.72,68.38h.03v-7.91h.95v9.33h-1.19l-5.56-7.99h-.03v7.99h-.95v-9.33h1.19l5.56,7.91Z"></path><path d="M188.73,69.8h-1.11l4.06-9.33h.92l4.06,9.33h-1.11l-1.03-2.45h-4.77l-1.03,2.45Zm1.38-3.32h4.05l-2.02-4.9-2.03,4.9Z"></path><path d="M203.85,68.93h4.99v.87h-5.94v-9.33h5.79v.87h-4.84v3.18h4.52v.87h-4.52v3.54Z"></path><path d="M215.79,62.01c-.41-.61-1.01-.91-1.81-.91-.25,0-.49,.03-.72,.1s-.45,.17-.64,.3c-.19,.14-.34,.31-.45,.53-.11,.21-.17,.47-.17,.76,0,.42,.12,.75,.36,.98,.24,.23,.53,.42,.88,.57,.35,.15,.74,.28,1.15,.4,.42,.12,.8,.28,1.15,.47,.35,.2,.65,.46,.88,.78,.24,.33,.36,.77,.36,1.33,0,.42-.09,.8-.27,1.14-.18,.34-.42,.62-.71,.85-.29,.23-.62,.4-.99,.53-.36,.12-.73,.18-1.1,.18-.57,0-1.11-.11-1.63-.32-.51-.22-.95-.57-1.31-1.06l.87-.62c.2,.34,.48,.62,.84,.82,.36,.21,.78,.31,1.27,.31,.24,0,.47-.04,.71-.11,.24-.07,.45-.19,.64-.33,.19-.14,.34-.32,.47-.53,.12-.21,.18-.45,.18-.73,0-.33-.07-.59-.2-.81-.14-.21-.32-.4-.54-.54-.22-.15-.48-.27-.76-.36-.29-.1-.58-.19-.88-.29s-.6-.21-.88-.33c-.29-.12-.54-.28-.76-.47-.22-.19-.4-.43-.54-.71-.14-.29-.2-.64-.2-1.07s.09-.84,.26-1.17c.17-.33,.4-.61,.69-.83,.29-.22,.61-.38,.97-.49,.36-.11,.73-.16,1.11-.16,.53,0,1.01,.08,1.44,.25,.43,.17,.83,.46,1.2,.88l-.83,.65Z"></path><path d="M222.36,69.8h-.95v-8.46h-3.12v-.87h7.2v.87h-3.12v8.46Z"></path><path d="M228.54,68.93h4.99v.87h-5.94v-9.33h5.79v.87h-4.84v3.18h4.52v.87h-4.52v3.54Zm1.67-8.87h-.78l1.32-1.9h1.2l-1.74,1.9Z"></path><path d="M239.06,69.8h-.95v-8.46h-3.12v-.87h7.2v.87h-3.12v8.46Z"></path><path d="M245.24,69.8h-.95v-9.33h.95v9.33Z"></path><path d="M256.11,68.32c-.16,.24-.35,.46-.59,.67-.23,.21-.5,.39-.8,.55s-.62,.27-.97,.36-.71,.13-1.1,.13c-.69,0-1.34-.12-1.93-.37-.59-.25-1.11-.59-1.54-1.02-.43-.43-.78-.95-1.02-1.55-.25-.6-.37-1.25-.37-1.96s.12-1.37,.37-1.96c.25-.6,.59-1.11,1.02-1.55,.43-.44,.95-.78,1.54-1.02,.59-.25,1.24-.37,1.93-.37,.58,0,1.16,.11,1.74,.34,.58,.23,1.08,.61,1.49,1.13l-.83,.62c-.1-.15-.23-.3-.4-.45-.17-.15-.36-.28-.57-.4s-.45-.21-.69-.28c-.25-.07-.49-.11-.74-.11-.6,0-1.13,.11-1.61,.33-.47,.22-.88,.51-1.21,.88-.33,.37-.58,.8-.76,1.28-.18,.49-.26,1-.26,1.54s.09,1.05,.26,1.54c.18,.49,.43,.92,.76,1.29,.33,.37,.73,.66,1.21,.88,.47,.22,1.01,.33,1.61,.33,.25,0,.49-.02,.73-.07,.24-.04,.48-.12,.71-.22,.23-.11,.45-.25,.66-.43,.21-.18,.4-.41,.57-.68l.78,.55Z"></path><path d="M258.2,69.8h-1.11l4.06-9.33h.92l4.06,9.33h-1.11l-1.03-2.45h-4.77l-1.03,2.45Zm1.38-3.32h4.05l-2.02-4.9-2.03,4.9Z"></path></g><rect x="111.45" y="47.66" width="170.44" height=".57"></rect></g></g></g></g></svg>